<?xml version="1.0" standalone="no"?><svg xmlns="http://www.w3.org/2000/svg" viewBox="0 0 1440 320"><path fill="#273036" fill-opacity="1" d="M0,96L24,90.7C48,85,96,75,144,69.3C192,64,240,64,288,101.3C336,139,384,213,432,250.7C480,288,528,288,576,240C624,192,672,96,720,58.7C768,21,816,43,864,85.3C912,128,960,192,1008,229.3C1056,267,1104,277,1152,250.7C1200,224,1248,160,1296,133.3C1344,107,1392,117,1416,122.7L1440,128L1440,320L1416,320C1392,320,1344,320,1296,320C1248,320,1200,320,1152,320C1104,320,1056,320,1008,320C960,320,912,320,864,320C816,320,768,320,720,320C672,320,624,320,576,320C528,320,480,320,432,320C384,320,336,320,288,320C240,320,192,320,144,320C96,320,48,320,24,320L0,320Z"></path></svg>