<?xml version="1.0" standalone="no"?><svg xmlns="http://www.w3.org/2000/svg" viewBox="0 0 1440 320"><path fill="#273040" fill-opacity="1" d="M0,0L13.3,21.3C26.7,43,53,85,80,96C106.7,107,133,85,160,85.3C186.7,85,213,107,240,133.3C266.7,160,293,192,320,218.7C346.7,245,373,267,400,266.7C426.7,267,453,245,480,245.3C506.7,245,533,267,560,245.3C586.7,224,613,160,640,154.7C666.7,149,693,203,720,197.3C746.7,192,773,128,800,128C826.7,128,853,192,880,224C906.7,256,933,256,960,234.7C986.7,213,1013,171,1040,144C1066.7,117,1093,107,1120,122.7C1146.7,139,1173,181,1200,170.7C1226.7,160,1253,96,1280,106.7C1306.7,117,1333,203,1360,240C1386.7,277,1413,267,1427,261.3L1440,256L1440,320L1426.7,320C1413.3,320,1387,320,1360,320C1333.3,320,1307,320,1280,320C1253.3,320,1227,320,1200,320C1173.3,320,1147,320,1120,320C1093.3,320,1067,320,1040,320C1013.3,320,987,320,960,320C933.3,320,907,320,880,320C853.3,320,827,320,800,320C773.3,320,747,320,720,320C693.3,320,667,320,640,320C613.3,320,587,320,560,320C533.3,320,507,320,480,320C453.3,320,427,320,400,320C373.3,320,347,320,320,320C293.3,320,267,320,240,320C213.3,320,187,320,160,320C133.3,320,107,320,80,320C53.3,320,27,320,13,320L0,320Z"></path></svg>