<?xml version="1.0" standalone="no"?><svg xmlns="http://www.w3.org/2000/svg" viewBox="0 0 1440 320"><path fill="#273036" fill-opacity="1" d="M0,96L24,90.7C48,85,96,75,144,69.3C192,64,240,64,288,101.3C336,139,384,213,432,250.7C480,288,528,288,576,240C624,192,672,96,720,58.7C768,21,816,43,864,85.3C912,128,960,192,1008,229.3C1056,267,1104,277,1152,250.7C1200,224,1248,160,1296,133.3C1344,107,1392,117,1416,122.7L1440,128L1440,0L1416,0C1392,0,1344,0,1296,0C1248,0,1200,0,1152,0C1104,0,1056,0,1008,0C960,0,912,0,864,0C816,0,768,0,720,0C672,0,624,0,576,0C528,0,480,0,432,0C384,0,336,0,288,0C240,0,192,0,144,0C96,0,48,0,24,0L0,0Z"></path></svg>