<svg width="100" height="100" viewBox="0 0 100 100" fill="none" xmlns="http://www.w3.org/2000/svg">
<g clip-path="url(#clip0_11_20)">
<path d="M29.9971 30.8618H24.4748L39.5301 73.4197L47.9586 49.3341L41.4239 30.8618H35.5974V26.8066H61.3992V30.8618H55.3571L70.4122 73.4197L75.824 57.9545C82.9231 38.1405 70.0054 31.9684 70.0054 27.5464C70.0054 23.1244 73.5902 19.5399 78.0119 19.5399C78.2512 19.5399 78.4835 19.5529 78.7111 19.5741C71.2188 12.5013 61.1162 8.164 49.9996 8.164C35.4741 8.164 22.6793 15.568 15.1787 26.8066H29.9966V30.8618H29.9971Z" fill="#00769D"/>
<path d="M8.16406 50C8.16406 66.017 17.1666 79.9294 30.3863 86.9595L11.5065 33.5905C9.35578 38.629 8.16406 44.1752 8.16406 50Z" fill="#00769D"/>
<path d="M86.4095 29.3845C87.0079 32.9081 86.8268 36.8683 85.9085 40.844H86.0749L85.4423 42.6515C85.0675 43.9567 84.5955 45.2919 84.0594 46.6037L69.6641 86.9324C82.856 79.8938 91.8355 65.9964 91.8355 49.9997C91.8355 42.5039 89.8622 35.4695 86.4095 29.3845Z" fill="#00769D"/>
<path d="M37.0974 89.8049C41.1618 91.1215 45.4971 91.8356 50.0001 91.8356C54.2952 91.8356 58.4386 91.1873 62.3392 89.9849L50.1017 55.3923L37.0974 89.8049Z" fill="#00769D"/>
<path d="M85.3552 14.6446C75.9115 5.20088 63.3553 0 49.9998 0C36.6443 0 24.0883 5.20088 14.6446 14.6446C5.20088 24.0883 0 36.6443 0 50C0 63.3555 5.20088 75.9115 14.6446 85.3552C24.0883 94.7989 36.6445 99.9998 50 99.9998C63.3555 99.9998 75.9115 94.7989 85.3554 85.3552C94.7991 75.9115 100 63.3552 100 50C99.9998 36.6443 94.7989 24.0883 85.3552 14.6446ZM49.9998 96.4726C24.3747 96.4726 3.52712 75.6251 3.52712 50C3.52712 24.3749 24.3747 3.52712 49.9998 3.52712C75.6249 3.52712 96.4724 24.3749 96.4724 50C96.4724 75.6251 75.6251 96.4726 49.9998 96.4726Z" fill="#00769D"/>
</g>
<defs>
<clipPath id="clip0_11_20">
<rect width="100" height="100" fill="white"/>
</clipPath>
</defs>
</svg>
